<svg class="animated" id="freepik_stories-browser-stats" xmlns="http://www.w3.org/2000/svg" viewBox="0 0 500 500" version="1.1" xmlns:xlink="http://www.w3.org/1999/xlink" xmlns:svgjs="http://svgjs.com/svgjs"><style>svg#freepik_stories-browser-stats:not(.animated) .animable {opacity: 0;}svg#freepik_stories-browser-stats.animated #elqmb8vsce29 {animation: 1s 1 forwards ease-out lightSpeedRight;animation-delay: 0s;}svg#freepik_stories-browser-stats.animated #el713fxow5n1j {animation: 1s 1 forwards ease-out lightSpeedRight;animation-delay: 0.018518518518518517s;opacity: 0}svg#freepik_stories-browser-stats.animated #elttpscmqmn3 {animation: 1s 1 forwards ease-out lightSpeedRight;animation-delay: 0.037037037037037035s;opacity: 0}svg#freepik_stories-browser-stats.animated #el0fsd235udvfd {animation: 1s 1 forwards ease-out lightSpeedRight;animation-delay: 0.05555555555555555s;opacity: 0}svg#freepik_stories-browser-stats.animated #elvc0kns64cxl {animation: 1s 1 forwards ease-out lightSpeedRight;animation-delay: 0.07407407407407407s;opacity: 0}svg#freepik_stories-browser-stats.animated #elqh5jq8atp1 {animation: 1s 1 forwards ease-out lightSpeedRight;animation-delay: 0.09259259259259259s;opacity: 0}svg#freepik_stories-browser-stats.animated #elpeh2ohs58ht {animation: 1s 1 forwards ease-out lightSpeedRight;animation-delay: 0.1111111111111111s;opacity: 0}svg#freepik_stories-browser-stats.animated #elsgv2mg4zprf {animation: 1s 1 forwards ease-out lightSpeedRight;animation-delay: 0.12962962962962962s;opacity: 0}svg#freepik_stories-browser-stats.animated #el2p3l0or087r {animation: 1s 1 forwards ease-out lightSpeedRight;animation-delay: 0.14814814814814814s;opacity: 0}svg#freepik_stories-browser-stats.animated #elypm7u62tzd {animation: 1s 1 forwards ease-out lightSpeedRight;animation-delay: 0.16666666666666666s;opacity: 0}svg#freepik_stories-browser-stats.animated #elhjf766oc0ok {animation: 1s 1 forwards ease-out lightSpeedRight;animation-delay: 0.18518518518518517s;opacity: 0}svg#freepik_stories-browser-stats.animated #elo8waundrdi {animation: 1s 1 forwards ease-out lightSpeedRight;animation-delay: 0.2037037037037037s;opacity: 0}svg#freepik_stories-browser-stats.animated #el5aldl68ixa {animation: 1s 1 forwards ease-out lightSpeedRight;animation-delay: 0.2222222222222222s;opacity: 0}svg#freepik_stories-browser-stats.animated #elg8v8b9ocx4q {animation: 1s 1 forwards ease-out lightSpeedRight;animation-delay: 0.24074074074074073s;opacity: 0}svg#freepik_stories-browser-stats.animated #eld9vciurw3ci {animation: 1s 1 forwards ease-out lightSpeedRight;animation-delay: 0.25925925925925924s;opacity: 0}svg#freepik_stories-browser-stats.animated #el9gotojymue {animation: 1s 1 forwards ease-out lightSpeedRight;animation-delay: 0.2777777777777778s;opacity: 0}svg#freepik_stories-browser-stats.animated #elakcon07qbrl {animation: 1s 1 forwards ease-out lightSpeedRight;animation-delay: 0.2962962962962963s;opacity: 0}svg#freepik_stories-browser-stats.animated #elih6i7zyq71r {animation: 1s 1 forwards ease-out lightSpeedRight;animation-delay: 0.31481481481481477s;opacity: 0}svg#freepik_stories-browser-stats.animated #elhqpccr4b2o7 {animation: 1s 1 forwards ease-out lightSpeedRight;animation-delay: 0.3333333333333333s;opacity: 0}svg#freepik_stories-browser-stats.animated #ellzhf0d8k2d {animation: 1s 1 forwards ease-out lightSpeedRight;animation-delay: 0.35185185185185186s;opacity: 0}svg#freepik_stories-browser-stats.animated #elrjf47nyw3q8 {animation: 1s 1 forwards ease-out lightSpeedRight;animation-delay: 0.37037037037037035s;opacity: 0}svg#freepik_stories-browser-stats.animated #eltqkyt6v0u8g {animation: 1s 1 forwards ease-out lightSpeedRight;animation-delay: 0.38888888888888884s;opacity: 0}svg#freepik_stories-browser-stats.animated #elaylya9pqcps {animation: 1s 1 forwards ease-out lightSpeedRight;animation-delay: 0.4074074074074074s;opacity: 0}svg#freepik_stories-browser-stats.animated #elr3tw2lztsho {animation: 1s 1 forwards ease-out lightSpeedRight;animation-delay: 0.42592592592592593s;opacity: 0}svg#freepik_stories-browser-stats.animated #elr96d2nw5w0a {animation: 1s 1 forwards ease-out lightSpeedRight;animation-delay: 0.4444444444444444s;opacity: 0}svg#freepik_stories-browser-stats.animated #el0z0msizxz7ag {animation: 1s 1 forwards ease-out lightSpeedRight;animation-delay: 0.4629629629629629s;opacity: 0}svg#freepik_stories-browser-stats.animated #el1m3phnj5h9mh {animation: 1s 1 forwards ease-out lightSpeedRight;animation-delay: 0.48148148148148145s;opacity: 0}svg#freepik_stories-browser-stats.animated #el97ol38e3hi {animation: 1s 1 forwards ease-out lightSpeedRight;animation-delay: 0.5s;opacity: 0}svg#freepik_stories-browser-stats.animated #el20lcrjn3s5s {animation: 1s 1 forwards ease-out lightSpeedRight;animation-delay: 0.5185185185185185s;opacity: 0}svg#freepik_stories-browser-stats.animated #elg63zqhncu0l {animation: 1s 1 forwards ease-out lightSpeedRight;animation-delay: 0.537037037037037s;opacity: 0}svg#freepik_stories-browser-stats.animated #elsqsdimlfrxn {animation: 1s 1 forwards ease-out lightSpeedRight;animation-delay: 0.5555555555555556s;opacity: 0}svg#freepik_stories-browser-stats.animated #el3posy1utm96 {animation: 1s 1 forwards ease-out lightSpeedRight;animation-delay: 0.5740740740740741s;opacity: 0}svg#freepik_stories-browser-stats.animated #elvz390tyhjd {animation: 1s 1 forwards ease-out lightSpeedRight;animation-delay: 0.5925925925925926s;opacity: 0}svg#freepik_stories-browser-stats.animated #elh7vweokxpzb {animation: 1s 1 forwards ease-out lightSpeedRight;animation-delay: 0.611111111111111s;opacity: 0}svg#freepik_stories-browser-stats.animated #elju3rn51c73p {animation: 1s 1 forwards ease-out lightSpeedRight;animation-delay: 0.6296296296296295s;opacity: 0}svg#freepik_stories-browser-stats.animated #el34g9y7t388o {animation: 1s 1 forwards ease-out lightSpeedRight;animation-delay: 0.6481481481481481s;opacity: 0}svg#freepik_stories-browser-stats.animated #elw34x71a1e4t {animation: 1s 1 forwards ease-out lightSpeedRight;animation-delay: 0.6666666666666666s;opacity: 0}svg#freepik_stories-browser-stats.animated #elhjwtztxakxs {animation: 1s 1 forwards ease-out lightSpeedRight;animation-delay: 0.6851851851851851s;opacity: 0}svg#freepik_stories-browser-stats.animated #ellw4zui8rqz {animation: 1s 1 forwards ease-out lightSpeedRight;animation-delay: 0.7037037037037037s;opacity: 0}svg#freepik_stories-browser-stats.animated #elzokubr2i43e {animation: 1s 1 forwards ease-out lightSpeedRight;animation-delay: 0.7222222222222222s;opacity: 0}svg#freepik_stories-browser-stats.animated #ellvriamnmg {animation: 1s 1 forwards ease-out lightSpeedRight;animation-delay: 0.7407407407407407s;opacity: 0}svg#freepik_stories-browser-stats.animated #elbr1m7vhbbag {animation: 1s 1 forwards ease-out lightSpeedRight;animation-delay: 0.7592592592592592s;opacity: 0}svg#freepik_stories-browser-stats.animated #ely5a9iyxna7 {animation: 1s 1 forwards ease-out lightSpeedRight;animation-delay: 0.7777777777777777s;opacity: 0}svg#freepik_stories-browser-stats.animated #elvgnij3k5inq {animation: 1s 1 forwards ease-out lightSpeedRight;animation-delay: 0.7962962962962963s;opacity: 0}svg#freepik_stories-browser-stats.animated #elsugsj4cj18 {animation: 1s 1 forwards ease-out lightSpeedRight;animation-delay: 0.8148148148148148s;opacity: 0}svg#freepik_stories-browser-stats.animated #elmdey0baw9jb {animation: 1s 1 forwards ease-out lightSpeedRight;animation-delay: 0.8333333333333333s;opacity: 0}svg#freepik_stories-browser-stats.animated #eli861aybqya {animation: 1s 1 forwards ease-out lightSpeedRight;animation-delay: 0.8518518518518519s;opacity: 0}svg#freepik_stories-browser-stats.animated #elya5h6i3cdyp {animation: 1s 1 forwards ease-out lightSpeedRight;animation-delay: 0.8703703703703703s;opacity: 0}svg#freepik_stories-browser-stats.animated #el649x1wvoenl {animation: 1s 1 forwards ease-out lightSpeedRight;animation-delay: 0.8888888888888888s;opacity: 0}svg#freepik_stories-browser-stats.animated #elnn2i4bvdklc {animation: 1s 1 forwards ease-out lightSpeedRight;animation-delay: 0.9074074074074073s;opacity: 0}svg#freepik_stories-browser-stats.animated #elf7eaxlu2sw8 {animation: 1s 1 forwards ease-out lightSpeedRight;animation-delay: 0.9259259259259258s;opacity: 0}svg#freepik_stories-browser-stats.animated #elckng6cghfss {animation: 1s 1 forwards ease-out lightSpeedRight;animation-delay: 0.9444444444444444s;opacity: 0}svg#freepik_stories-browser-stats.animated #elufou6pks7yg {animation: 1s 1 forwards ease-out lightSpeedRight;animation-delay: 0.9629629629629629s;opacity: 0}svg#freepik_stories-browser-stats.animated #el3qvhve7162o {animation: 1s 1 forwards ease-out lightSpeedRight;animation-delay: 0.9814814814814814s;opacity: 0}svg#freepik_stories-browser-stats.animated #freepik--Graphics--inject-1--inject-7 {animation: 1s 1 forwards ease-out lightSpeedRight,1.5s Infinite  linear floating;animation-delay: 0s,1s;}            @keyframes lightSpeedRight {              from {                transform: translate3d(50%, 0, 0) skewX(-20deg);                opacity: 0;              }              60% {                transform: skewX(10deg);                opacity: 1;              }              80% {                transform: skewX(-2deg);              }              to {                opacity: 1;                transform: translate3d(0, 0, 0);              }            }                    @keyframes floating {                0% {                    opacity: 1;                    transform: translateY(0px);                }                50% {                    transform: translateY(-10px);                }                100% {                    opacity: 1;                    transform: translateY(0px);                }            }        </style><g id="freepik--Plants--inject-1--inject-7" class="animable" style="transform-origin: 250.759px 301.08px;"><rect x="60.95" y="407.28" width="390" height="16" style="fill: #AAFF00; transform-origin: 255.95px 415.28px;" id="ell4j8sdrj2s8" class="animable"></rect><g id="elji81e3nmxmo"><rect x="60.95" y="407.28" width="390" height="16" style="fill: rgb(255, 255, 255); opacity: 0.5; transform-origin: 255.95px 415.28px;" class="animable" id="elrq8j2z9q148"></rect></g><path d="M158.07,235.67a55,55,0,0,0-5.61,2.17c1-.74,2-1.49,3-2.26a142.74,142.74,0,0,0,12.7-11.5,136.25,136.25,0,0,1-15,12.63,34.35,34.35,0,0,0,1.92-3.94c.95-2.49,1.18-5-1.2-6.33-2.92-1.64-6.47.81-5.53,5a15.45,15.45,0,0,0,3.22,6.35,96.54,96.54,0,0,1-10.79,6.47l-.36.18a34.33,34.33,0,0,0,2.09-4.25c.95-2.48,1.18-5-1.2-6.32-2.92-1.65-6.47.81-5.53,5a15.42,15.42,0,0,0,3.17,6.28c-4.49,2.21-9.14,4.09-13.75,6.13l-.67.3a28.87,28.87,0,0,0,2.5-3.08c1.51-2.19,2.31-4.57.31-6.43-2.46-2.28-6.48-.71-6.55,3.61a15.32,15.32,0,0,0,1.63,6.87,70.71,70.71,0,0,0-12.24,7.26l-.12.1a26.11,26.11,0,0,0,1.41-2.54c1.13-2.41,1.55-4.89-.72-6.4a3.71,3.71,0,0,0-5.58,1.73,3.47,3.47,0,0,0-1.2-1.14c-2.29-1.32-4.54.11-6.46,2.13-.5.53-1,1.09-1.43,1.66a70.23,70.23,0,0,1,5.59-11.91,16.92,16.92,0,0,0,6.72,1.44c4.56,0,6.49-3.8,4.25-6.16-1.82-1.91-4.38-1.18-6.8.22a25.71,25.71,0,0,0-2.32,1.52,69.07,69.07,0,0,1,7.87-9.78A17.12,17.12,0,0,0,117.8,234c4.43,1.09,7.22-2.12,5.61-4.95-1.3-2.3-4-2.21-6.65-1.44a34.39,34.39,0,0,0-3.71,1.37c1.21-1.17,2.46-2.3,3.72-3.42,1.67-1.42,3.39-2.79,5.13-4.13a17.13,17.13,0,0,0,6.39,3.19c4.43,1.09,7.21-2.12,5.61-4.95-1.3-2.3-4-2.21-6.65-1.44-.63.18-1.25.4-1.87.63,2.31-1.65,4.66-3.26,7-4.86l2.18-1.49a17.12,17.12,0,0,0,6.72,3.46c4.43,1.09,7.21-2.12,5.61-4.95-1.3-2.3-4-2.21-6.65-1.44a30.53,30.53,0,0,0-3.09,1.11h0c.45-.32.9-.64,1.34-1,.83-.59,1.64-1.2,2.45-1.82,1-.75,1.94-1.59,2.92-2.38.55-.44,1.09-.91,1.62-1.39a17.13,17.13,0,0,0,6.76,3.49c4.43,1.09,7.21-2.12,5.61-4.95-1.3-2.3-4-2.21-6.65-1.44a37.42,37.42,0,0,0-4.36,1.65h0c1.81-1.68,3.56-3.43,5.21-5.25l.33-.38c.71-.79,1.42-1.6,2.1-2.42s1.55-1.93,2.29-2.92a56.27,56.27,0,0,0,7.44-13,56.57,56.57,0,0,1-7.68,12.8,81.1,81.1,0,0,1-10.27,10.85l-.41.35a37.75,37.75,0,0,0,2.28-4.59c1-2.48,1.18-5-1.2-6.32-2.92-1.65-6.47.81-5.53,5a15.46,15.46,0,0,0,3.51,6.68l-.88.76-1,.86c-.59.47-1.18.92-1.78,1.37l-1,.73c-.85.63-1.72,1.24-2.59,1.84l-1.24.85-1.42,1a37,37,0,0,0,2.18-4.41c.95-2.49,1.18-5-1.2-6.33-2.92-1.64-6.47.82-5.53,5a15.55,15.55,0,0,0,3.35,6.51l-1.05.68-3.9,2.55-.76.5-2.17,1.45-.94.63c-1,.69-2,1.39-3,2.11a36.67,36.67,0,0,0,2.22-4.48c.95-2.48,1.18-5-1.2-6.32-2.92-1.65-6.47.81-5.53,5a15.57,15.57,0,0,0,3.42,6.58c-1.7,1.25-3.37,2.53-5,3.87-1.19,1-2.37,2-3.51,3.08a25.68,25.68,0,0,0,1.33-2.86c1-2.49,1.18-5-1.2-6.32-2.92-1.65-6.47.81-5.53,5a15.55,15.55,0,0,0,3.17,6.28,71,71,0,0,0-8.72,10.53,27.09,27.09,0,0,0,.67-3.32c.32-2.64-.06-5.12-2.69-5.84-3.24-.89-6.09,2.35-4.16,6.21a15.58,15.58,0,0,0,4.64,5.37,74.58,74.58,0,0,0-6.28,13,22.63,22.63,0,0,0-.28-2.82c-.44-2.63-1.51-4.9-4.24-4.85-3.35.07-5.16,4-2.22,7.14a15.35,15.35,0,0,0,5.63,3.71,94,94,0,0,0-2.78,10.67c-.11.57-.2,1.14-.31,1.71-.12.11-.24.22-.35.34-.12-.49-.26-1-.42-1.47-.84-2.52-2.25-4.61-4.93-4.13-3.31.57-4.5,4.72-1.1,7.39a15.28,15.28,0,0,0,5.85,2.73l.12.29c-.36,2.71-.64,5.44-.81,8.18-.13,2-.2,4.09-.24,6.14-2.86,0-4.88,3.14-2.91,6.54a14.54,14.54,0,0,0,3.15,3.72c.24,3.85.62,7.7,1.13,11.52a3.18,3.18,0,0,0-3.06-.71c-1.8.49-2.61,1.94-2.91,3.72a3.67,3.67,0,0,0-1,2.47c-1.34-2-2.6-4-3.83-6.12a16.94,16.94,0,0,0,4.56-5.32c2.16-4-.27-7.51-3.41-6.66-2.55.69-3.12,3.3-3,6.09a27.27,27.27,0,0,0,.3,3.16c-.45-.77-.89-1.55-1.32-2.32-1.1-2-2-4-3.08-6-.26-.49-.49-1-.71-1.5a16.8,16.8,0,0,0,5.47-4.37c2.87-3.54,1.14-7.43-2.1-7.18-2.63.21-3.68,2.66-4.12,5.42a28.42,28.42,0,0,0-.32,3.63l-.94-2.17a112.44,112.44,0,0,1-4.93-15.14,17.13,17.13,0,0,0,6.34-4c3.21-3.25,1.88-7.28-1.37-7.36-2.64-.06-3.93,2.27-4.65,5a37.66,37.66,0,0,0-.8,4.4c-.69-3-1.29-5.95-1.79-8.95-.34-1.86-.56-3.75-.8-5.63a17.29,17.29,0,0,0,7.07-3.17c3.6-2.8,2.8-7-.41-7.47-2.61-.41-4.19,1.74-5.25,4.33a43,43,0,0,0-1.57,5c-.2-2.18-.43-4.37-.53-6.56a100.89,100.89,0,0,1,.06-13.58,101.19,101.19,0,0,0-.47,13.6c0,2.09.18,4.17.31,6.26a34.26,34.26,0,0,0-2-4.13c-1.37-2.29-3.18-4-5.71-3-3.1,1.28-3.37,5.58.52,7.46a15.56,15.56,0,0,0,7.32,1.39c.18,1.86.33,3.73.62,5.58.39,2.95.89,5.88,1.47,8.79a28.2,28.2,0,0,0-2.12-3.21c-1.65-2.09-3.68-3.57-6-2.22-2.91,1.67-2.62,6,1.48,7.33a15.47,15.47,0,0,0,7.19.48,114.68,114.68,0,0,0,4.49,15.35l.6,1.5a21.86,21.86,0,0,0-1.71-2c-1.85-1.92-4-3.19-6.24-1.6-2.73,1.95-2,6.2,2.21,7.14a15.53,15.53,0,0,0,7.05-.2c.2.51.42,1,.67,1.52,1,2.06,1.89,4.17,2.94,6.19l.91,1.73a19.78,19.78,0,0,0-1.62-1.28c-2.18-1.53-4.54-2.37-6.43-.4-2.31,2.43-.81,6.47,3.51,6.6A15.36,15.36,0,0,0,76.23,313c1.23,2.24,2.51,4.45,3.89,6.62.51.83,1,1.65,1.58,2.47a24.9,24.9,0,0,0-2.49-2.05c-2.17-1.53-4.54-2.37-6.42-.4-2.32,2.43-.81,6.47,3.51,6.6a15.58,15.58,0,0,0,7.12-1.63q1.06,1.5,2.22,3c-1.61,1.87-1.09,5,2.18,6.43a14.73,14.73,0,0,0,5,1.11l.62.47.11.08a239.56,239.56,0,0,0,7.34,22.82q1.81,4.79,3.82,9.49h-12v47.33h36.66V368H109.78c-1.67-3.65-3.27-7.34-4.77-11.07-2.45-6.13-4.67-12.34-6.61-18.65l0,0a7.78,7.78,0,0,0,1,.23,4.5,4.5,0,0,0,1.35.06l-.52-3.29h-.07l-.28,0c-.18,0-.42-.09-.63-.12a8.83,8.83,0,0,1-1.34-.5l-.52-.24a16.85,16.85,0,0,0,5.28-3c3.48-3,2.49-7.1-.74-7.45-2.63-.29-4.11,1.93-5,4.56-.27.75-.49,1.53-.69,2.29-.18-.7-.38-1.4-.55-2.1-.53-2.07-1-4.16-1.48-6.25a16.85,16.85,0,0,0,5.71-3.14c3.48-3,2.49-7.09-.74-7.44-2.63-.29-4.11,1.93-5,4.56a24,24,0,0,0-.7,2.33c-.3-1.53-.6-3.05-.86-4.58-.2-1.14-.37-2.27-.54-3.41-.07-1.62-.09-3.24-.07-4.87,0-.89,0-1.78.08-2.68a16.88,16.88,0,0,0,6.07.78c4.55-.3,6.24-4.2,3.86-6.41-1.94-1.81-4.45-.91-6.78.63a30.72,30.72,0,0,0-3,2.31,72.9,72.9,0,0,1,1.72-11.3,59.92,59.92,0,0,1,1.92-6.46,17,17,0,0,0,6.51.91c4.55-.29,6.24-4.19,3.86-6.41-1.94-1.8-4.45-.91-6.78.64a28.7,28.7,0,0,0-2.39,1.8,46.9,46.9,0,0,1,3.06-6,44.06,44.06,0,0,1,8.62-10.34A17,17,0,0,0,114.8,267c4.33,1.42,7.35-1.58,6-4.52-1.12-2.39-3.79-2.5-6.52-1.93a27.74,27.74,0,0,0-3.07.85l.06-.06a68.94,68.94,0,0,1,12-7.52,17,17,0,0,0,5.58,4.74c4.05,2.09,7.51-.39,6.61-3.51-.73-2.54-3.34-3.07-6.14-3a31.55,31.55,0,0,0-3.26.36c4.5-2.13,9.11-4.14,13.54-6.49h0l.09-.05a17.1,17.1,0,0,0,6.89,3.6c4.43,1.1,7.22-2.12,5.62-4.95-1.31-2.3-4-2.2-6.66-1.44-.75.22-1.5.49-2.22.77a100,100,0,0,0,8.6-5.62l.24.25a.37.37,0,0,1,0-.11,17.33,17.33,0,0,0,6.94,3.65c4.43,1.09,7.21-2.12,5.61-4.95C163.42,234.8,160.76,234.9,158.07,235.67ZM88.15,326.28c-.9-1.07-1.76-2.17-2.61-3.29.21-.18.43-.38.65-.6a15.63,15.63,0,0,0,3.84.69c0,.07,0,.14,0,.21l.61-.13c.31,1.58.65,3.15,1,4.72A4.13,4.13,0,0,0,88.15,326.28Zm3.27-37.65c-.31,1.17-.58,2.36-.82,3.55a1.16,1.16,0,0,0-.16-.21q0-3.66.12-7.3c.07-1.7.19-3.39.34-5.09a16.72,16.72,0,0,0,2.7,2.25A60.43,60.43,0,0,0,91.42,288.63Zm4.1-11.2c0-.44.1-.89.13-1.33,0-.23,0-.45,0-.67.36-.11.72-.24,1.09-.39C96.32,275.83,95.91,276.62,95.52,277.43Zm5.21-8.46a3.24,3.24,0,0,0-1.84-1.71c-2.46-1-4.47.8-6.06,3.1l-.07.11-.16,0a3,3,0,0,0-.51-.07c0-.14,0-.28.07-.42a91.12,91.12,0,0,1,2.55-10.68,17.07,17.07,0,0,0,6.85-.53,5.91,5.91,0,0,0,3.36-2.32,15.73,15.73,0,0,0,2.46,5.61A46,46,0,0,0,100.73,269Z" style="fill: #AAFF00; transform-origin: 109.364px 297.11px;" id="eljem43mzmnps" class="animable"></path><g id="el5dozcuidi7v"><path d="M158.07,235.67a55,55,0,0,0-5.61,2.17c1-.74,2-1.49,3-2.26a142.74,142.74,0,0,0,12.7-11.5,136.25,136.25,0,0,1-15,12.63,34.35,34.35,0,0,0,1.92-3.94c.95-2.49,1.18-5-1.2-6.33-2.92-1.64-6.47.81-5.53,5a15.45,15.45,0,0,0,3.22,6.35,96.54,96.54,0,0,1-10.79,6.47l-.36.18a34.33,34.33,0,0,0,2.09-4.25c.95-2.48,1.18-5-1.2-6.32-2.92-1.65-6.47.81-5.53,5a15.42,15.42,0,0,0,3.17,6.28c-4.49,2.21-9.14,4.09-13.75,6.13l-.67.3a28.87,28.87,0,0,0,2.5-3.08c1.51-2.19,2.31-4.57.31-6.43-2.46-2.28-6.48-.71-6.55,3.61a15.32,15.32,0,0,0,1.63,6.87,70.71,70.71,0,0,0-12.24,7.26l-.12.1a26.11,26.11,0,0,0,1.41-2.54c1.13-2.41,1.55-4.89-.72-6.4a3.71,3.71,0,0,0-5.58,1.73,3.47,3.47,0,0,0-1.2-1.14c-2.29-1.32-4.54.11-6.46,2.13-.5.53-1,1.09-1.43,1.66a70.23,70.23,0,0,1,5.59-11.91,16.92,16.92,0,0,0,6.72,1.44c4.56,0,6.49-3.8,4.25-6.16-1.82-1.91-4.38-1.18-6.8.22a25.71,25.71,0,0,0-2.32,1.52,69.07,69.07,0,0,1,7.87-9.78A17.12,17.12,0,0,0,117.8,234c4.43,1.09,7.22-2.12,5.61-4.95-1.3-2.3-4-2.21-6.65-1.44a34.39,34.39,0,0,0-3.71,1.37c1.21-1.17,2.46-2.3,3.72-3.42,1.67-1.42,3.39-2.79,5.13-4.13a17.13,17.13,0,0,0,6.39,3.19c4.43,1.09,7.21-2.12,5.61-4.95-1.3-2.3-4-2.21-6.65-1.44-.63.18-1.25.4-1.87.63,2.31-1.65,4.66-3.26,7-4.86l2.18-1.49a17.12,17.12,0,0,0,6.72,3.46c4.43,1.09,7.21-2.12,5.61-4.95-1.3-2.3-4-2.21-6.65-1.44a30.53,30.53,0,0,0-3.09,1.11h0c.45-.32.9-.64,1.34-1,.83-.59,1.64-1.2,2.45-1.82,1-.75,1.94-1.59,2.92-2.38.55-.44,1.09-.91,1.62-1.39a17.13,17.13,0,0,0,6.76,3.49c4.43,1.09,7.21-2.12,5.61-4.95-1.3-2.3-4-2.21-6.65-1.44a37.42,37.42,0,0,0-4.36,1.65h0c1.81-1.68,3.56-3.43,5.21-5.25l.33-.38c.71-.79,1.42-1.6,2.1-2.42s1.55-1.93,2.29-2.92a56.27,56.27,0,0,0,7.44-13,56.57,56.57,0,0,1-7.68,12.8,81.1,81.1,0,0,1-10.27,10.85l-.41.35a37.75,37.75,0,0,0,2.28-4.59c1-2.48,1.18-5-1.2-6.32-2.92-1.65-6.47.81-5.53,5a15.46,15.46,0,0,0,3.51,6.68l-.88.76-1,.86c-.59.47-1.18.92-1.78,1.37l-1,.73c-.85.63-1.72,1.24-2.59,1.84l-1.24.85-1.42,1a37,37,0,0,0,2.18-4.41c.95-2.49,1.18-5-1.2-6.33-2.92-1.64-6.47.82-5.53,5a15.55,15.55,0,0,0,3.35,6.51l-1.05.68-3.9,2.55-.76.5-2.17,1.45-.94.63c-1,.69-2,1.39-3,2.11a36.67,36.67,0,0,0,2.22-4.48c.95-2.48,1.18-5-1.2-6.32-2.92-1.65-6.47.81-5.53,5a15.57,15.57,0,0,0,3.42,6.58c-1.7,1.25-3.37,2.53-5,3.87-1.19,1-2.37,2-3.51,3.08a25.68,25.68,0,0,0,1.33-2.86c1-2.49,1.18-5-1.2-6.32-2.92-1.65-6.47.81-5.53,5a15.55,15.55,0,0,0,3.17,6.28,71,71,0,0,0-8.72,10.53,27.09,27.09,0,0,0,.67-3.32c.32-2.64-.06-5.12-2.69-5.84-3.24-.89-6.09,2.35-4.16,6.21a15.58,15.58,0,0,0,4.64,5.37,74.58,74.58,0,0,0-6.28,13,22.63,22.63,0,0,0-.28-2.82c-.44-2.63-1.51-4.9-4.24-4.85-3.35.07-5.16,4-2.22,7.14a15.35,15.35,0,0,0,5.63,3.71,94,94,0,0,0-2.78,10.67c-.11.57-.2,1.14-.31,1.71-.12.11-.24.22-.35.34-.12-.49-.26-1-.42-1.47-.84-2.52-2.25-4.61-4.93-4.13-3.31.57-4.5,4.72-1.1,7.39a15.28,15.28,0,0,0,5.85,2.73l.12.29c-.36,2.71-.64,5.44-.81,8.18-.13,2-.2,4.09-.24,6.14-2.86,0-4.88,3.14-2.91,6.54a14.54,14.54,0,0,0,3.15,3.72c.24,3.85.62,7.7,1.13,11.52a3.18,3.18,0,0,0-3.06-.71c-1.8.49-2.61,1.94-2.91,3.72a3.67,3.67,0,0,0-1,2.47c-1.34-2-2.6-4-3.83-6.12a16.94,16.94,0,0,0,4.56-5.32c2.16-4-.27-7.51-3.41-6.66-2.55.69-3.12,3.3-3,6.09a27.27,27.27,0,0,0,.3,3.16c-.45-.77-.89-1.55-1.32-2.32-1.1-2-2-4-3.08-6-.26-.49-.49-1-.71-1.5a16.8,16.8,0,0,0,5.47-4.37c2.87-3.54,1.14-7.43-2.1-7.18-2.63.21-3.68,2.66-4.12,5.42a28.42,28.42,0,0,0-.32,3.63l-.94-2.17a112.44,112.44,0,0,1-4.93-15.14,17.13,17.13,0,0,0,6.34-4c3.21-3.25,1.88-7.28-1.37-7.36-2.64-.06-3.93,2.27-4.65,5a37.66,37.66,0,0,0-.8,4.4c-.69-3-1.29-5.95-1.79-8.95-.34-1.86-.56-3.75-.8-5.63a17.29,17.29,0,0,0,7.07-3.17c3.6-2.8,2.8-7-.41-7.47-2.61-.41-4.19,1.74-5.25,4.33a43,43,0,0,0-1.57,5c-.2-2.18-.43-4.37-.53-6.56a100.89,100.89,0,0,1,.06-13.58,101.19,101.19,0,0,0-.47,13.6c0,2.09.18,4.17.31,6.26a34.26,34.26,0,0,0-2-4.13c-1.37-2.29-3.18-4-5.71-3-3.1,1.28-3.37,5.58.52,7.46a15.56,15.56,0,0,0,7.32,1.39c.18,1.86.33,3.73.62,5.58.39,2.95.89,5.88,1.47,8.79a28.2,28.2,0,0,0-2.12-3.21c-1.65-2.09-3.68-3.57-6-2.22-2.91,1.67-2.62,6,1.48,7.33a15.47,15.47,0,0,0,7.19.48,114.68,114.68,0,0,0,4.49,15.35l.6,1.5a21.86,21.86,0,0,0-1.71-2c-1.85-1.92-4-3.19-6.24-1.6-2.73,1.95-2,6.2,2.21,7.14a15.53,15.53,0,0,0,7.05-.2c.2.51.42,1,.67,1.52,1,2.06,1.89,4.17,2.94,6.19l.91,1.73a19.78,19.78,0,0,0-1.62-1.28c-2.18-1.53-4.54-2.37-6.43-.4-2.31,2.43-.81,6.47,3.51,6.6A15.36,15.36,0,0,0,76.23,313c1.23,2.24,2.51,4.45,3.89,6.62.51.83,1,1.65,1.58,2.47a24.9,24.9,0,0,0-2.49-2.05c-2.17-1.53-4.54-2.37-6.42-.4-2.32,2.43-.81,6.47,3.51,6.6a15.58,15.58,0,0,0,7.12-1.63q1.06,1.5,2.22,3c-1.61,1.87-1.09,5,2.18,6.43a14.73,14.73,0,0,0,5,1.11l.62.47.11.08a239.56,239.56,0,0,0,7.34,22.82q1.81,4.79,3.82,9.49h-12v47.33h36.66V368H109.78c-1.67-3.65-3.27-7.34-4.77-11.07-2.45-6.13-4.67-12.34-6.61-18.65l0,0a7.78,7.78,0,0,0,1,.23,4.5,4.5,0,0,0,1.35.06l-.52-3.29h-.07l-.28,0c-.18,0-.42-.09-.63-.12a8.83,8.83,0,0,1-1.34-.5l-.52-.24a16.85,16.85,0,0,0,5.28-3c3.48-3,2.49-7.1-.74-7.45-2.63-.29-4.11,1.93-5,4.56-.27.75-.49,1.53-.69,2.29-.18-.7-.38-1.4-.55-2.1-.53-2.07-1-4.16-1.48-6.25a16.85,16.85,0,0,0,5.71-3.14c3.48-3,2.49-7.09-.74-7.44-2.63-.29-4.11,1.93-5,4.56a24,24,0,0,0-.7,2.33c-.3-1.53-.6-3.05-.86-4.58-.2-1.14-.37-2.27-.54-3.41-.07-1.62-.09-3.24-.07-4.87,0-.89,0-1.78.08-2.68a16.88,16.88,0,0,0,6.07.78c4.55-.3,6.24-4.2,3.86-6.41-1.94-1.81-4.45-.91-6.78.63a30.72,30.72,0,0,0-3,2.31,72.9,72.9,0,0,1,1.72-11.3,59.92,59.92,0,0,1,1.92-6.46,17,17,0,0,0,6.51.91c4.55-.29,6.24-4.19,3.86-6.41-1.94-1.8-4.45-.91-6.78.64a28.7,28.7,0,0,0-2.39,1.8,46.9,46.9,0,0,1,3.06-6,44.06,44.06,0,0,1,8.62-10.34A17,17,0,0,0,114.8,267c4.33,1.42,7.35-1.58,6-4.52-1.12-2.39-3.79-2.5-6.52-1.93a27.74,27.74,0,0,0-3.07.85l.06-.06a68.94,68.94,0,0,1,12-7.52,17,17,0,0,0,5.58,4.74c4.05,2.09,7.51-.39,6.61-3.51-.73-2.54-3.34-3.07-6.14-3a31.55,31.55,0,0,0-3.26.36c4.5-2.13,9.11-4.14,13.54-6.49h0l.09-.05a17.1,17.1,0,0,0,6.89,3.6c4.43,1.1,7.22-2.12,5.62-4.95-1.31-2.3-4-2.2-6.66-1.44-.75.22-1.5.49-2.22.77a100,100,0,0,0,8.6-5.62l.24.25a.37.37,0,0,1,0-.11,17.33,17.33,0,0,0,6.94,3.65c4.43,1.09,7.21-2.12,5.61-4.95C163.42,234.8,160.76,234.9,158.07,235.67ZM88.15,326.28c-.9-1.07-1.76-2.17-2.61-3.29.21-.18.43-.38.65-.6a15.63,15.63,0,0,0,3.84.69c0,.07,0,.14,0,.21l.61-.13c.31,1.58.65,3.15,1,4.72A4.13,4.13,0,0,0,88.15,326.28Zm3.27-37.65c-.31,1.17-.58,2.36-.82,3.55a1.16,1.16,0,0,0-.16-.21q0-3.66.12-7.3c.07-1.7.19-3.39.34-5.09a16.72,16.72,0,0,0,2.7,2.25A60.43,60.43,0,0,0,91.42,288.63Zm4.1-11.2c0-.44.1-.89.13-1.33,0-.23,0-.45,0-.67.36-.11.72-.24,1.09-.39C96.32,275.83,95.91,276.62,95.52,277.43Zm5.21-8.46a3.24,3.24,0,0,0-1.84-1.71c-2.46-1-4.47.8-6.06,3.1l-.07.11-.16,0a3,3,0,0,0-.51-.07c0-.14,0-.28.07-.42a91.12,91.12,0,0,1,2.55-10.68,17.07,17.07,0,0,0,6.85-.53,5.91,5.91,0,0,0,3.36-2.32,15.73,15.73,0,0,0,2.46,5.61A46,46,0,0,0,100.73,269Z" style="fill: rgb(255, 255, 255); opacity: 0.5; transform-origin: 109.364px 297.11px;" class="animable" id="el2c0rf1cznr"></path></g></g><g id="freepik--Shadow--inject-1--inject-7" class="animable" style="transform-origin: 319.665px 417.335px;"><path d="M442.33,417.33c0,2.4-54.92,4.34-122.66,4.34S197,419.73,197,417.33,251.92,413,319.67,413,442.33,414.94,442.33,417.33Z" style="fill: #AAFF00; transform-origin: 319.665px 417.335px;" id="eliw9ge3yxq2s" class="animable"></path><g id="eliwqo36a718n"><path d="M442.33,417.33c0,2.4-54.92,4.34-122.66,4.34S197,419.73,197,417.33,251.92,413,319.67,413,442.33,414.94,442.33,417.33Z" style="fill: rgb(46, 53, 58); opacity: 0.3; transform-origin: 319.665px 417.335px;" class="animable" id="eloh1rr1ogl6"></path></g></g><g id="freepik--Device--inject-1--inject-7" class="animable" style="transform-origin: 327.5px 311.599px;"><path d="M310.84,378.39s6,25.64,3.37,29.86c-3.39,5.51-39.54,8.83-39.54,8.83h79.71s10-2.8,7-10.83c-2.33-6.22-13.48-27.86-13.48-27.86Z" style="fill: rgb(255, 255, 255); stroke: rgb(46, 53, 58); stroke-linecap: round; stroke-linejoin: round; transform-origin: 318.306px 397.735px;" id="el4u4wyteq8mu" class="animable"></path><path d="M309.1,378.39s6.36,25.86,3.37,29.86-37.8,7.05-37.8,7.05h80.08s6.74-2.72,4.87-9.05-13.47-27.86-13.47-27.86Z" style="fill: rgb(255, 255, 255); stroke: rgb(46, 53, 58); stroke-linecap: round; stroke-linejoin: round; transform-origin: 317.309px 396.845px;" id="el2czk64s4glp" class="animable"></path><path d="M346.15,378.39h-37s3.76,15.32,4.13,24.2h45C354.59,394.05,346.15,378.39,346.15,378.39Z" style="fill: #AAFF00; mix-blend-mode: multiply; transform-origin: 333.715px 390.49px;" id="el4dvbzywqxds" class="animable"></path><rect x="274.67" y="415.43" width="79.71" height="1.65" style="fill: rgb(255, 255, 255); stroke: rgb(46, 53, 58); stroke-linecap: round; stroke-linejoin: round; transform-origin: 314.525px 416.255px;" id="elst91j5aojee" class="animable"></rect><rect x="210.08" y="200.53" width="240.51" height="180.39" rx="8.48" style="fill: #AAFF00; stroke: rgb(46, 53, 58); stroke-linecap: round; stroke-linejoin: round; transform-origin: 330.335px 290.725px;" id="elpnzvplvnw2" class="animable"></rect><rect x="204.41" y="200.53" width="240.51" height="180.39" rx="8.48" style="fill: rgb(46, 53, 58); stroke: rgb(46, 53, 58); stroke-linecap: round; stroke-linejoin: round; transform-origin: 324.665px 290.725px;" id="elx08wt3k2sot" class="animable"></rect><path d="M204.41,352.87H444.92a0,0,0,0,1,0,0v19.55a8.48,8.48,0,0,1-8.48,8.48H212.89a8.48,8.48,0,0,1-8.48-8.48V352.87A0,0,0,0,1,204.41,352.87Z" style="fill: rgb(255, 255, 255); stroke: rgb(46, 53, 58); stroke-linecap: round; stroke-linejoin: round; transform-origin: 324.665px 366.885px;" id="ellfuezbacref" class="animable"></path><rect x="216.51" y="211.75" width="216.32" height="127.44" style="fill: #AAFF00; stroke: rgb(46, 53, 58); stroke-linecap: round; stroke-linejoin: round; transform-origin: 324.67px 275.47px;" id="elusduosubpn" class="animable"></rect><path d="M329.1,366.89a4.44,4.44,0,1,0-4.43,4.44A4.43,4.43,0,0,0,329.1,366.89Z" style="fill: rgb(46, 53, 58); stroke: rgb(46, 53, 58); stroke-linecap: round; stroke-linejoin: round; transform-origin: 324.66px 366.89px;" id="elbufx5s0lqbd" class="animable"></path><rect x="218.21" y="220.73" width="212.59" height="11.17" style="fill: rgb(46, 53, 58); stroke: rgb(46, 53, 58); stroke-linecap: round; stroke-linejoin: round; transform-origin: 324.505px 226.315px;" id="elhgcxa2rqab9" class="animable"></rect><polygon points="253.28 231.91 250.74 225.01 218.21 225.01 218.21 231.91 218.21 241.06 218.21 333.76 430.8 333.76 430.8 231.91 253.28 231.91" style="fill: rgb(255, 255, 255); stroke: rgb(46, 53, 58); stroke-linecap: round; stroke-linejoin: round; transform-origin: 324.505px 279.385px;" id="elkqgg9hs7zrs" class="animable"></polygon><path d="M370.84,418.06s1.37,3.31,8.92,4.46,58.47-4.81,58.47-4.81,3.2-.8,3.43-2.4-8.24-6.29-23.91-8.24a90.23,90.23,0,0,0-40.39,4.58C367.64,415.2,370.84,418.06,370.84,418.06Z" style="fill: rgb(255, 255, 255); stroke: rgb(46, 53, 58); stroke-linecap: round; stroke-linejoin: round; transform-origin: 406px 414.574px;" id="elseeib05bw1" class="animable"></path><path d="M429.44,412.45c-3.4,0-11.09.36-17.35.9s-16.63,4.47-22.35,6.43-14.84,1.44-14.84,1.44a20.17,20.17,0,0,0,4.86,1.3c7.55,1.14,58.47-4.81,58.47-4.81a7,7,0,0,0,3-1.6C438,413.77,432.22,412.45,429.44,412.45Z" style="fill: #AAFF00; mix-blend-mode: multiply; transform-origin: 408.065px 417.558px;" id="elq706zreaqxj" class="animable"></path><path d="M439.35,415a9,9,0,0,1,1.27.81" style="fill: none; stroke: rgb(46, 53, 58); stroke-linecap: round; stroke-linejoin: round; transform-origin: 439.985px 415.405px;" id="elnhd3uxp638a" class="animable"></path><path d="M376.45,421.72A40.24,40.24,0,0,0,392,419.09,94.11,94.11,0,0,1,425,412.56c6.57-.05,10.59.85,13,1.76" style="fill: none; stroke: rgb(46, 53, 58); stroke-linecap: round; stroke-linejoin: round; transform-origin: 407.225px 417.148px;" id="eleoljcwg7cbb" class="animable"></path></g><g id="freepik--Graphics--inject-1--inject-7" class="animable animator-active" style="transform-origin: 248.755px 248.085px;"><polyline points="418.7 285.05 352.42 285.05 352.42 325.39 418.39 325.39" style="fill: none; stroke: rgb(46, 53, 58); stroke-linecap: round; stroke-linejoin: round; stroke-width: 0.5px; transform-origin: 385.56px 305.22px;" id="elqmb8vsce29" class="animable"></polyline><line x1="352.72" y1="296.55" x2="419" y2="296.55" style="fill: none; stroke: rgb(46, 53, 58); stroke-linecap: round; stroke-linejoin: round; stroke-width: 0.5px; transform-origin: 385.86px 296.55px;" id="el713fxow5n1j" class="animable"></line><line x1="352.72" y1="308.02" x2="419" y2="308.02" style="fill: none; stroke: rgb(46, 53, 58); stroke-linecap: round; stroke-linejoin: round; stroke-width: 0.5px; transform-origin: 385.86px 308.02px;" id="elttpscmqmn3" class="animable"></line><line x1="352.72" y1="319.49" x2="419" y2="319.49" style="fill: none; stroke: rgb(46, 53, 58); stroke-linecap: round; stroke-linejoin: round; stroke-width: 0.5px; transform-origin: 385.86px 319.49px;" id="el0fsd235udvfd" class="animable"></line><line x1="350.6" y1="285.32" x2="347.88" y2="285.32" style="fill: none; stroke: rgb(46, 53, 58); stroke-linecap: round; stroke-linejoin: round; stroke-width: 0.5px; transform-origin: 349.24px 285.32px;" id="elvc0kns64cxl" class="animable"></line><line x1="350.6" y1="291" x2="347.88" y2="291" style="fill: none; stroke: rgb(46, 53, 58); stroke-linecap: round; stroke-linejoin: round; stroke-width: 0.5px; transform-origin: 349.24px 291px;" id="elqh5jq8atp1" class="animable"></line><line x1="350.6" y1="296.69" x2="347.88" y2="296.69" style="fill: none; stroke: rgb(46, 53, 58); stroke-linecap: round; stroke-linejoin: round; stroke-width: 0.5px; transform-origin: 349.24px 296.69px;" id="elpeh2ohs58ht" class="animable"></line><line x1="350.6" y1="302.38" x2="347.88" y2="302.38" style="fill: none; stroke: rgb(46, 53, 58); stroke-linecap: round; stroke-linejoin: round; stroke-width: 0.5px; transform-origin: 349.24px 302.38px;" id="elsgv2mg4zprf" class="animable"></line><line x1="350.6" y1="308.06" x2="347.88" y2="308.06" style="fill: none; stroke: rgb(46, 53, 58); stroke-linecap: round; stroke-linejoin: round; stroke-width: 0.5px; transform-origin: 349.24px 308.06px;" id="el2p3l0or087r" class="animable"></line><line x1="350.6" y1="313.75" x2="347.88" y2="313.75" style="fill: none; stroke: rgb(46, 53, 58); stroke-linecap: round; stroke-linejoin: round; stroke-width: 0.5px; transform-origin: 349.24px 313.75px;" id="elypm7u62tzd" class="animable"></line><line x1="350.6" y1="319.44" x2="347.88" y2="319.44" style="fill: none; stroke: rgb(46, 53, 58); stroke-linecap: round; stroke-linejoin: round; stroke-width: 0.5px; transform-origin: 349.24px 319.44px;" id="elhjf766oc0ok" class="animable"></line><line x1="350.6" y1="325.12" x2="347.88" y2="325.12" style="fill: none; stroke: rgb(46, 53, 58); stroke-linecap: round; stroke-linejoin: round; stroke-width: 0.5px; transform-origin: 349.24px 325.12px;" id="elo8waundrdi" class="animable"></line><rect x="354.83" y="301.2" width="3.05" height="24.03" style="fill: rgb(46, 53, 58); stroke: rgb(46, 53, 58); stroke-linecap: round; stroke-linejoin: round; transform-origin: 356.355px 313.215px;" id="el5aldl68ixa" class="animable"></rect><rect x="360.24" y="289.7" width="3.05" height="35.53" style="fill: #AAFF00; stroke: rgb(46, 53, 58); stroke-linecap: round; stroke-linejoin: round; transform-origin: 361.765px 307.465px;" id="elg8v8b9ocx4q" class="animable"></rect><rect x="365.66" y="301.2" width="3.05" height="24.03" style="fill: rgb(255, 255, 255); stroke: rgb(46, 53, 58); stroke-linecap: round; stroke-linejoin: round; transform-origin: 367.185px 313.215px;" id="eld9vciurw3ci" class="animable"></rect><rect x="377.84" y="293.42" width="3.05" height="31.81" style="fill: rgb(46, 53, 58); stroke: rgb(46, 53, 58); stroke-linecap: round; stroke-linejoin: round; transform-origin: 379.365px 309.325px;" id="el9gotojymue" class="animable"></rect><rect x="383.25" y="298.16" width="3.05" height="27.07" style="fill: #AAFF00; stroke: rgb(46, 53, 58); stroke-linecap: round; stroke-linejoin: round; transform-origin: 384.775px 311.695px;" id="elakcon07qbrl" class="animable"></rect><rect x="388.67" y="311.69" width="3.05" height="13.54" style="fill: rgb(255, 255, 255); stroke: rgb(46, 53, 58); stroke-linecap: round; stroke-linejoin: round; transform-origin: 390.195px 318.46px;" id="elih6i7zyq71r" class="animable"></rect><rect x="400.85" y="301.2" width="3.05" height="24.03" style="fill: rgb(46, 53, 58); stroke: rgb(46, 53, 58); stroke-linecap: round; stroke-linejoin: round; transform-origin: 402.375px 313.215px;" id="elhqpccr4b2o7" class="animable"></rect><rect x="406.26" y="289.7" width="3.05" height="35.53" style="fill: #AAFF00; stroke: rgb(46, 53, 58); stroke-linecap: round; stroke-linejoin: round; transform-origin: 407.785px 307.465px;" id="ellzhf0d8k2d" class="animable"></rect><rect x="411.68" y="301.2" width="3.05" height="24.03" style="fill: rgb(255, 255, 255); stroke: rgb(46, 53, 58); stroke-linecap: round; stroke-linejoin: round; transform-origin: 413.205px 313.215px;" id="elrjf47nyw3q8" class="animable"></rect><g id="eltqkyt6v0u8g" class=""><polygon points="333.18 247.08 367 272.39 367 237.05 333.18 105.08 333.18 247.08" style="fill: #AAFF00; stroke: rgb(255, 255, 255); stroke-linecap: round; stroke-linejoin: round; opacity: 0.4; transform-origin: 350.09px 188.735px;" class="animable" id="elgkejqmodo8q"></polygon></g><g id="elaylya9pqcps" class=""><polygon points="367 272.39 257 272.39 78.51 247.08 333.18 247.08 367 272.39" style="fill: #AAFF00; stroke: rgb(255, 255, 255); stroke-linecap: round; stroke-linejoin: round; opacity: 0.4; transform-origin: 222.755px 259.735px;" class="animable" id="elmske521s498"></polygon></g><rect x="78.51" y="105.08" width="254.67" height="128" style="stroke: rgb(46, 53, 58); stroke-linecap: round; stroke-linejoin: round; transform-origin: 205.845px 169.08px;" id="elr3tw2lztsho" class="animable"></rect><line x1="88.33" y1="111.72" x2="137" y2="111.72" style="fill: none; stroke: rgb(255, 255, 255); stroke-linecap: round; stroke-linejoin: round; stroke-width: 2px; transform-origin: 112.665px 111.72px;" id="elr96d2nw5w0a" class="animable"></line><path d="M326.7,111.12a3.34,3.34,0,1,0-3.33,3.34A3.33,3.33,0,0,0,326.7,111.12Z" style="fill: rgb(255, 255, 255); transform-origin: 323.36px 111.12px;" id="el0z0msizxz7ag" class="animable"></path><path d="M312.43,111.12a3.33,3.33,0,1,0-3.33,3.34A3.33,3.33,0,0,0,312.43,111.12Z" style="fill: rgb(255, 255, 255); transform-origin: 309.1px 111.13px;" id="el1m3phnj5h9mh" class="animable"></path><rect x="78.51" y="119.08" width="254.67" height="128" style="fill: rgb(255, 255, 255); stroke: rgb(46, 53, 58); stroke-linecap: round; stroke-linejoin: round; transform-origin: 205.845px 183.08px;" id="el97ol38e3hi" class="animable"></rect><polyline points="321.18 132.42 96.51 132.42 96.51 235.08 320.51 235.08" style="fill: none; stroke: rgb(46, 53, 58); stroke-linecap: round; stroke-linejoin: round; stroke-width: 0.5px; transform-origin: 208.845px 183.75px;" id="el20lcrjn3s5s" class="animable"></polyline><line x1="97.18" y1="161.68" x2="321.84" y2="161.68" style="fill: none; stroke: rgb(46, 53, 58); stroke-linecap: round; stroke-linejoin: round; stroke-width: 0.5px; transform-origin: 209.51px 161.68px;" id="elg63zqhncu0l" class="animable"></line><line x1="97.18" y1="190.88" x2="321.84" y2="190.88" style="fill: none; stroke: rgb(46, 53, 58); stroke-linecap: round; stroke-linejoin: round; stroke-width: 0.5px; transform-origin: 209.51px 190.88px;" id="elsqsdimlfrxn" class="animable"></line><line x1="97.18" y1="220.08" x2="321.84" y2="220.08" style="fill: none; stroke: rgb(46, 53, 58); stroke-linecap: round; stroke-linejoin: round; stroke-width: 0.5px; transform-origin: 209.51px 220.08px;" id="el3posy1utm96" class="animable"></line><line x1="92.51" y1="133.08" x2="86.51" y2="133.08" style="fill: none; stroke: rgb(46, 53, 58); stroke-linecap: round; stroke-linejoin: round; stroke-width: 0.5px; transform-origin: 89.51px 133.08px;" id="elvz390tyhjd" class="animable"></line><line x1="92.51" y1="147.56" x2="86.51" y2="147.56" style="fill: none; stroke: rgb(46, 53, 58); stroke-linecap: round; stroke-linejoin: round; stroke-width: 0.5px; transform-origin: 89.51px 147.56px;" id="elh7vweokxpzb" class="animable"></line><line x1="92.51" y1="162.04" x2="86.51" y2="162.04" style="fill: none; stroke: rgb(46, 53, 58); stroke-linecap: round; stroke-linejoin: round; stroke-width: 0.5px; transform-origin: 89.51px 162.04px;" id="elju3rn51c73p" class="animable"></line><line x1="92.51" y1="176.51" x2="86.51" y2="176.51" style="fill: none; stroke: rgb(46, 53, 58); stroke-linecap: round; stroke-linejoin: round; stroke-width: 0.5px; transform-origin: 89.51px 176.51px;" id="el34g9y7t388o" class="animable"></line><line x1="92.51" y1="190.99" x2="86.51" y2="190.99" style="fill: none; stroke: rgb(46, 53, 58); stroke-linecap: round; stroke-linejoin: round; stroke-width: 0.5px; transform-origin: 89.51px 190.99px;" id="elw34x71a1e4t" class="animable"></line><line x1="92.51" y1="205.46" x2="86.51" y2="205.46" style="fill: none; stroke: rgb(46, 53, 58); stroke-linecap: round; stroke-linejoin: round; stroke-width: 0.5px; transform-origin: 89.51px 205.46px;" id="elhjwtztxakxs" class="animable"></line><line x1="92.51" y1="219.94" x2="86.51" y2="219.94" style="fill: none; stroke: rgb(46, 53, 58); stroke-linecap: round; stroke-linejoin: round; stroke-width: 0.5px; transform-origin: 89.51px 219.94px;" id="ellw4zui8rqz" class="animable"></line><line x1="92.51" y1="234.42" x2="86.51" y2="234.42" style="fill: none; stroke: rgb(46, 53, 58); stroke-linecap: round; stroke-linejoin: round; stroke-width: 0.5px; transform-origin: 89.51px 234.42px;" id="elzokubr2i43e" class="animable"></line><path d="M98.18,162.22s19.66.86,23.66-1.8,9.34-8,12.67-7.34a111.3,111.3,0,0,1,10.67,3.34s8-4.67,10-4.67,8.66,3.33,14,3.33h15.33l6,4.67,11.33-3.33,12.67,5.33,8-1.33,11.33,6h5.34l10.66,4.66h14l8,4.67,12.67.67,10,10,8-1.34,8.67,3.34,8-.67" style="fill: none; stroke: #AAFF00; stroke-linecap: round; stroke-linejoin: round; stroke-width: 3px; transform-origin: 208.68px 170.085px;" id="ellvriamnmg" class="animable"></path><polyline points="97.84 165.75 122.51 165.75 137.18 167.75 149.18 168.42 159.84 175.75 175.18 171.08 193.84 177.75 214.51 174.42 221.84 177.75 238.51 159.08 255.18 159.08 265.18 148.42 275.84 153.08 282.51 147.08 291.18 151.75 296.51 145.08 299.84 145.75 308.51 143.08 312.51 145.75 319.18 144.42" style="fill: none; stroke: rgb(46, 53, 58); stroke-linecap: round; stroke-linejoin: round; stroke-width: 3px; transform-origin: 208.51px 160.415px;" id="elbr1m7vhbbag" class="animable"></polyline><polyline points="98.51 231.08 124.51 231.08 144.51 219.75 159.18 226.42 169.84 226.42 175.18 228.42 187.18 222.42 203.18 212.42 208.51 219.75 218.51 218.42 223.84 219.75 237.18 220.42 251.84 208.42 259.18 217.08 268.51 216.42 273.84 219.75 281.84 217.75 292.51 221.75 307.18 219.75 315.18 221.08 319.84 219.75" style="fill: none; stroke: #AAFF00; stroke-linecap: round; stroke-linejoin: round; stroke-width: 3px; transform-origin: 209.175px 219.75px;" id="ely5a9iyxna7" class="animable"></polyline><g id="elvgnij3k5inq" class=""><polygon points="257.67 256.42 317 281.72 317 326.39 257.67 391.08 257.67 256.42" style="fill: #AAFF00; stroke: rgb(255, 255, 255); stroke-linecap: round; stroke-linejoin: round; opacity: 0.4; transform-origin: 287.335px 323.75px;" class="animable" id="eln175yczavnq"></polygon></g><rect x="126.51" y="256.42" width="131.16" height="128" style="stroke: rgb(46, 53, 58); stroke-linecap: round; stroke-linejoin: round; transform-origin: 192.09px 320.42px;" id="elsugsj4cj18" class="animable"></rect><rect x="126.51" y="270.42" width="131.16" height="120.67" style="fill: rgb(255, 255, 255); stroke: rgb(46, 53, 58); stroke-linecap: round; stroke-linejoin: round; transform-origin: 192.09px 330.755px;" id="elmdey0baw9jb" class="animable"></rect><path d="M191.15,330.26l-52-.05a50.37,50.37,0,0,1,15.9-37.37Z" style="stroke: rgb(255, 255, 255); stroke-miterlimit: 10; transform-origin: 165.148px 311.55px;" id="eli861aybqya" class="animable"></path><path d="M191.15,330.26l-13.5,50.19a51.35,51.35,0,0,1-38.47-50.24Z" style="stroke: rgb(255, 255, 255); stroke-miterlimit: 10; transform-origin: 165.164px 355.33px;" id="elya5h6i3cdyp" class="animable"></path><path d="M193.48,331.72l24.45-45.87a52,52,0,0,1-38,96.06Z" style="fill: #AAFF00; stroke: rgb(255, 255, 255); stroke-miterlimit: 10; transform-origin: 212.636px 334.76px;" id="el649x1wvoenl" class="animable"></path><path d="M191.15,330.26l-2.67-51.91a49.49,49.49,0,0,1,27.12,6Z" style="stroke: rgb(255, 255, 255); stroke-miterlimit: 10; transform-origin: 202.04px 304.25px;" id="elnn2i4bvdklc" class="animable"></path><path d="M191.15,330.26l-36.07-37.42a49.28,49.28,0,0,1,33.4-14.49Z" style="stroke: rgb(255, 255, 255); stroke-miterlimit: 10; transform-origin: 173.115px 304.305px;" id="elf7eaxlu2sw8" class="animable"></path><path d="M252.33,263.72a3.33,3.33,0,1,0-3.33,3.33A3.33,3.33,0,0,0,252.33,263.72Z" style="fill: rgb(255, 255, 255); transform-origin: 249px 263.72px;" id="elckng6cghfss" class="animable"></path><path d="M238.07,263.72a3.34,3.34,0,1,0-3.34,3.33A3.34,3.34,0,0,0,238.07,263.72Z" style="fill: rgb(255, 255, 255); transform-origin: 234.73px 263.71px;" id="elufou6pks7yg" class="animable"></path><g id="el3qvhve7162o" class=""><rect x="126.51" y="270.42" width="131.16" height="15.47" style="fill: #AAFF00; stroke: rgb(255, 255, 255); stroke-linecap: round; stroke-linejoin: round; opacity: 0.73; mix-blend-mode: multiply; transform-origin: 192.09px 278.155px;" class="animable" id="elgiebxtxly"></rect></g></g><defs>     <filter id="active" height="200%">         <feMorphology in="SourceAlpha" result="DILATED" operator="dilate" radius="2"></feMorphology>                <feFlood flood-color="#32DFEC" flood-opacity="1" result="PINK"></feFlood>        <feComposite in="PINK" in2="DILATED" operator="in" result="OUTLINE"></feComposite>        <feMerge>            <feMergeNode in="OUTLINE"></feMergeNode>            <feMergeNode in="SourceGraphic"></feMergeNode>        </feMerge>    </filter>    <filter id="hover" height="200%">        <feMorphology in="SourceAlpha" result="DILATED" operator="dilate" radius="2"></feMorphology>                <feFlood flood-color="#ff0000" flood-opacity="0.5" result="PINK"></feFlood>        <feComposite in="PINK" in2="DILATED" operator="in" result="OUTLINE"></feComposite>        <feMerge>            <feMergeNode in="OUTLINE"></feMergeNode>            <feMergeNode in="SourceGraphic"></feMergeNode>        </feMerge>            <feColorMatrix type="matrix" values="0   0   0   0   0                0   1   0   0   0                0   0   0   0   0                0   0   0   1   0 "></feColorMatrix>    </filter></defs></svg>